<?xml version="1.0" encoding="UTF-8" standalone="no"?><svg xmlns="http://www.w3.org/2000/svg" xmlns:xlink="http://www.w3.org/1999/xlink" contentStyleType="text/css" height="1168px" preserveAspectRatio="none" style="width:894px;height:1168px;background:#FFFFFF;" version="1.1" viewBox="0 0 894 1168" width="894px" zoomAndPan="magnify"><defs/><g><rect fill="none" height="109.4063" style="stroke:#000000;stroke-width:1.5;" width="355.5" x="10" y="113.1875"/><rect fill="none" height="200.4609" style="stroke:#000000;stroke-width:1.5;" width="614" x="263.5" y="236.5938"/><rect fill="none" height="108.4063" style="stroke:#000000;stroke-width:1.5;" width="513.5" x="10" y="451.0547"/><rect fill="none" height="79.0547" style="stroke:#000000;stroke-width:1.5;" width="614" x="263.5" y="573.4609"/><rect fill="none" height="200.4609" style="stroke:#000000;stroke-width:1.5;" width="614" x="263.5" y="666.5156"/><rect fill="none" height="109.4063" style="stroke:#000000;stroke-width:1.5;" width="867.5" x="10" y="880.9766"/><rect fill="none" height="65.0547" style="stroke:#000000;stroke-width:1.5;" width="355.5" x="10" y="1004.3828"/><line style="stroke:#181818;stroke-width:0.5;stroke-dasharray:5.0,5.0;" x1="55" x2="55" y1="96.1875" y2="1086.4375"/><line style="stroke:#181818;stroke-width:0.5;stroke-dasharray:5.0,5.0;" x1="314.5" x2="314.5" y1="96.1875" y2="1086.4375"/><line style="stroke:#181818;stroke-width:0.5;stroke-dasharray:5.0,5.0;" x1="590" x2="590" y1="96.1875" y2="1086.4375"/><line style="stroke:#181818;stroke-width:0.5;stroke-dasharray:5.0,5.0;" x1="848.5" x2="848.5" y1="96.1875" y2="1086.4375"/><rect fill="#E2E2F0" height="31.6094" rx="2.5" ry="2.5" style="stroke:#181818;stroke-width:0.5;" width="71" x="20" y="63.5781"/><text fill="#000000" font-family="sans-serif" font-size="14" lengthAdjust="spacing" textLength="57" x="27" y="85.1113">Venturus</text><rect fill="#E2E2F0" height="31.6094" rx="2.5" ry="2.5" style="stroke:#181818;stroke-width:0.5;" width="71" x="20" y="1085.4375"/><text fill="#000000" font-family="sans-serif" font-size="14" lengthAdjust="spacing" textLength="57" x="27" y="1106.9707">Venturus</text><text fill="#000000" font-family="sans-serif" font-size="14" lengthAdjust="spacing" textLength="76" x="273.5" y="93.1113">Stakeholder</text><ellipse cx="314.5" cy="27.0781" fill="#E2E2F0" rx="8" ry="8" style="stroke:#181818;stroke-width:0.5;"/><path d="M314.5,35.0781 L314.5,62.0781 M301.5,43.0781 L327.5,43.0781 M314.5,62.0781 L301.5,77.0781 M314.5,62.0781 L327.5,77.0781 " fill="none" style="stroke:#181818;stroke-width:0.5;"/><text fill="#000000" font-family="sans-serif" font-size="14" lengthAdjust="spacing" textLength="76" x="273.5" y="1099.9707">Stakeholder</text><ellipse cx="314.5" cy="1111.5469" fill="#E2E2F0" rx="8" ry="8" style="stroke:#181818;stroke-width:0.5;"/><path d="M314.5,1119.5469 L314.5,1146.5469 M301.5,1127.5469 L327.5,1127.5469 M314.5,1146.5469 L301.5,1161.5469 M314.5,1146.5469 L327.5,1161.5469 " fill="none" style="stroke:#181818;stroke-width:0.5;"/><text fill="#000000" font-family="sans-serif" font-size="14" lengthAdjust="spacing" textLength="47" x="564" y="93.1113">Saimon</text><ellipse cx="590.5" cy="27.0781" fill="#E2E2F0" rx="8" ry="8" style="stroke:#181818;stroke-width:0.5;"/><path d="M590.5,35.0781 L590.5,62.0781 M577.5,43.0781 L603.5,43.0781 M590.5,62.0781 L577.5,77.0781 M590.5,62.0781 L603.5,77.0781 " fill="none" style="stroke:#181818;stroke-width:0.5;"/><text fill="#000000" font-family="sans-serif" font-size="14" lengthAdjust="spacing" textLength="47" x="564" y="1099.9707">Saimon</text><ellipse cx="590.5" cy="1111.5469" fill="#E2E2F0" rx="8" ry="8" style="stroke:#181818;stroke-width:0.5;"/><path d="M590.5,1119.5469 L590.5,1146.5469 M577.5,1127.5469 L603.5,1127.5469 M590.5,1146.5469 L577.5,1161.5469 M590.5,1146.5469 L603.5,1161.5469 " fill="none" style="stroke:#181818;stroke-width:0.5;"/><text fill="#000000" font-family="sans-serif" font-size="14" lengthAdjust="spacing" textLength="32" x="829.5" y="93.1113">Devs</text><ellipse cx="848.5" cy="27.0781" fill="#E2E2F0" rx="8" ry="8" style="stroke:#181818;stroke-width:0.5;"/><path d="M848.5,35.0781 L848.5,62.0781 M835.5,43.0781 L861.5,43.0781 M848.5,62.0781 L835.5,77.0781 M848.5,62.0781 L861.5,77.0781 " fill="none" style="stroke:#181818;stroke-width:0.5;"/><text fill="#000000" font-family="sans-serif" font-size="14" lengthAdjust="spacing" textLength="32" x="829.5" y="1099.9707">Devs</text><ellipse cx="848.5" cy="1111.5469" fill="#E2E2F0" rx="8" ry="8" style="stroke:#181818;stroke-width:0.5;"/><path d="M848.5,1119.5469 L848.5,1146.5469 M835.5,1127.5469 L861.5,1127.5469 M848.5,1146.5469 L835.5,1161.5469 M848.5,1146.5469 L861.5,1161.5469 " fill="none" style="stroke:#181818;stroke-width:0.5;"/><path d="M10,113.1875 L125,113.1875 L125,121.5391 L115,131.5391 L10,131.5391 L10,113.1875 " fill="#EEEEEE" style="stroke:#000000;stroke-width:1.5;"/><rect fill="none" height="109.4063" style="stroke:#000000;stroke-width:1.5;" width="355.5" x="10" y="113.1875"/><text fill="#000000" font-family="sans-serif" font-size="13" font-weight="bold" lengthAdjust="spacing" textLength="70" x="25" y="127.6826">Orçamento</text><line style="stroke:#181818;stroke-width:1.0;" x1="56.5" x2="66.5" y1="153.8906" y2="149.8906"/><line style="stroke:#181818;stroke-width:1.0;" x1="56.5" x2="66.5" y1="153.8906" y2="157.8906"/><line style="stroke:#181818;stroke-width:1.0;" x1="55.5" x2="313.5" y1="153.8906" y2="153.8906"/><text fill="#000000" font-family="sans-serif" font-size="13" font-weight="bold" lengthAdjust="spacing" textLength="7" x="72.5" y="149.0342">1</text><text fill="#000000" font-family="sans-serif" font-size="13" lengthAdjust="spacing" textLength="201" x="83.5" y="149.0342">Chega com a proposta de software</text><line style="stroke:#181818;stroke-width:1.0;" x1="312.5" x2="302.5" y1="184.2422" y2="180.2422"/><line style="stroke:#181818;stroke-width:1.0;" x1="312.5" x2="302.5" y1="184.2422" y2="188.2422"/><line style="stroke:#181818;stroke-width:1.0;" x1="55.5" x2="313.5" y1="184.2422" y2="184.2422"/><text fill="#000000" font-family="sans-serif" font-size="13" font-weight="bold" lengthAdjust="spacing" textLength="7" x="62.5" y="179.3857">2</text><text fill="#000000" font-family="sans-serif" font-size="13" lengthAdjust="spacing" textLength="224" x="73.5" y="179.3857">Devolve orçamento com preço e tempo</text><line style="stroke:#181818;stroke-width:1.0;" x1="56.5" x2="66.5" y1="214.5938" y2="210.5938"/><line style="stroke:#181818;stroke-width:1.0;" x1="56.5" x2="66.5" y1="214.5938" y2="218.5938"/><line style="stroke:#181818;stroke-width:1.0;" x1="55.5" x2="313.5" y1="214.5938" y2="214.5938"/><text fill="#000000" font-family="sans-serif" font-size="13" font-weight="bold" lengthAdjust="spacing" textLength="7" x="72.5" y="209.7373">3</text><text fill="#000000" font-family="sans-serif" font-size="13" lengthAdjust="spacing" textLength="87" x="83.5" y="209.7373">Fecha contrato</text><path d="M263.5,236.5938 L368.5,236.5938 L368.5,244.9453 L358.5,254.9453 L263.5,254.9453 L263.5,236.5938 " fill="#EEEEEE" style="stroke:#000000;stroke-width:1.5;"/><rect fill="none" height="200.4609" style="stroke:#000000;stroke-width:1.5;" width="614" x="263.5" y="236.5938"/><text fill="#000000" font-family="sans-serif" font-size="13" font-weight="bold" lengthAdjust="spacing" textLength="60" x="278.5" y="251.0889">discovery</text><line style="stroke:#181818;stroke-width:1.0;" x1="588.5" x2="578.5" y1="277.2969" y2="273.2969"/><line style="stroke:#181818;stroke-width:1.0;" x1="588.5" x2="578.5" y1="277.2969" y2="281.2969"/><line style="stroke:#181818;stroke-width:1.0;" x1="314.5" x2="589.5" y1="277.2969" y2="277.2969"/><text fill="#000000" font-family="sans-serif" font-size="13" font-weight="bold" lengthAdjust="spacing" textLength="7" x="321.5" y="272.4404">4</text><text fill="#000000" font-family="sans-serif" font-size="13" lengthAdjust="spacing" textLength="136" x="332.5" y="272.4404">Fornece documentação</text><line style="stroke:#181818;stroke-width:1.0;" x1="846.5" x2="836.5" y1="307.6484" y2="303.6484"/><line style="stroke:#181818;stroke-width:1.0;" x1="846.5" x2="836.5" y1="307.6484" y2="311.6484"/><line style="stroke:#181818;stroke-width:1.0;" x1="590.5" x2="847.5" y1="307.6484" y2="307.6484"/><text fill="#000000" font-family="sans-serif" font-size="13" font-weight="bold" lengthAdjust="spacing" textLength="7" x="597.5" y="302.792">5</text><text fill="#000000" font-family="sans-serif" font-size="13" lengthAdjust="spacing" textLength="223" x="608.5" y="302.792">Estuda a documentação com a equipe</text><line style="stroke:#181818;stroke-width:1.0;" x1="315.5" x2="325.5" y1="338" y2="334"/><line style="stroke:#181818;stroke-width:1.0;" x1="315.5" x2="325.5" y1="338" y2="342"/><line style="stroke:#181818;stroke-width:1.0;" x1="314.5" x2="589.5" y1="338" y2="338"/><text fill="#000000" font-family="sans-serif" font-size="13" font-weight="bold" lengthAdjust="spacing" textLength="7" x="331.5" y="333.1436">6</text><text fill="#000000" font-family="sans-serif" font-size="13" lengthAdjust="spacing" textLength="148" x="342.5" y="333.1436">Mapeaia dores e desafios</text><line style="stroke:#181818;stroke-width:1.0;" x1="588.5" x2="578.5" y1="368.3516" y2="364.3516"/><line style="stroke:#181818;stroke-width:1.0;" x1="588.5" x2="578.5" y1="368.3516" y2="372.3516"/><line style="stroke:#181818;stroke-width:1.0;" x1="314.5" x2="589.5" y1="368.3516" y2="368.3516"/><text fill="#000000" font-family="sans-serif" font-size="13" font-weight="bold" lengthAdjust="spacing" textLength="7" x="321.5" y="363.4951">7</text><text fill="#000000" font-family="sans-serif" font-size="13" lengthAdjust="spacing" textLength="182" x="332.5" y="363.4951">Fornece mais dados da jornada</text><line style="stroke:#181818;stroke-width:1.0;" x1="846.5" x2="836.5" y1="398.7031" y2="394.7031"/><line style="stroke:#181818;stroke-width:1.0;" x1="846.5" x2="836.5" y1="398.7031" y2="402.7031"/><line style="stroke:#181818;stroke-width:1.0;" x1="590.5" x2="847.5" y1="398.7031" y2="398.7031"/><text fill="#000000" font-family="sans-serif" font-size="13" font-weight="bold" lengthAdjust="spacing" textLength="7" x="597.5" y="393.8467">8</text><text fill="#000000" font-family="sans-serif" font-size="13" lengthAdjust="spacing" textLength="125" x="608.5" y="393.8467">Analisa com a equipe</text><line style="stroke:#181818;stroke-width:1.0;" x1="315.5" x2="325.5" y1="429.0547" y2="425.0547"/><line style="stroke:#181818;stroke-width:1.0;" x1="315.5" x2="325.5" y1="429.0547" y2="433.0547"/><line style="stroke:#181818;stroke-width:1.0;" x1="314.5" x2="589.5" y1="429.0547" y2="429.0547"/><text fill="#000000" font-family="sans-serif" font-size="13" font-weight="bold" lengthAdjust="spacing" textLength="7" x="331.5" y="424.1982">9</text><text fill="#000000" font-family="sans-serif" font-size="13" lengthAdjust="spacing" textLength="241" x="342.5" y="424.1982">Demonstra as causas raiz dos problemas</text><path d="M10,451.0547 L201,451.0547 L201,459.4063 L191,469.4063 L10,469.4063 L10,451.0547 " fill="#EEEEEE" style="stroke:#000000;stroke-width:1.5;"/><rect fill="none" height="108.4063" style="stroke:#000000;stroke-width:1.5;" width="513.5" x="10" y="451.0547"/><text fill="#000000" font-family="sans-serif" font-size="13" font-weight="bold" lengthAdjust="spacing" textLength="146" x="25" y="465.5498">Reflete nas causas raiz</text><line style="stroke:#181818;stroke-width:1.0;" x1="314.5" x2="356.5" y1="508.1094" y2="508.1094"/><line style="stroke:#181818;stroke-width:1.0;" x1="356.5" x2="356.5" y1="508.1094" y2="521.1094"/><line style="stroke:#181818;stroke-width:1.0;" x1="315.5" x2="356.5" y1="521.1094" y2="521.1094"/><line style="stroke:#181818;stroke-width:1.0;" x1="315.5" x2="325.5" y1="521.1094" y2="517.1094"/><line style="stroke:#181818;stroke-width:1.0;" x1="315.5" x2="325.5" y1="521.1094" y2="525.1094"/><text fill="#000000" font-family="sans-serif" font-size="13" font-weight="bold" lengthAdjust="spacing" textLength="14" x="321.5" y="495.0771">10</text><text fill="#000000" font-family="sans-serif" font-size="13" lengthAdjust="spacing" textLength="172" x="339.5" y="486.9014">Percebe que sua solução não</text><text fill="#000000" font-family="sans-serif" font-size="13" lengthAdjust="spacing" textLength="133" x="339.5" y="503.2529">resolve o problema real</text><line style="stroke:#181818;stroke-width:1.0;" x1="56.5" x2="66.5" y1="551.4609" y2="547.4609"/><line style="stroke:#181818;stroke-width:1.0;" x1="56.5" x2="66.5" y1="551.4609" y2="555.4609"/><line style="stroke:#181818;stroke-width:1.0;" x1="55.5" x2="313.5" y1="551.4609" y2="551.4609"/><text fill="#000000" font-family="sans-serif" font-size="13" font-weight="bold" lengthAdjust="spacing" textLength="14" x="72.5" y="546.6045">11</text><text fill="#000000" font-family="sans-serif" font-size="13" lengthAdjust="spacing" textLength="128" x="90.5" y="546.6045">Negocia segunda fase</text><path d="M263.5,573.4609 L376.5,573.4609 L376.5,581.8125 L366.5,591.8125 L263.5,591.8125 L263.5,573.4609 " fill="#EEEEEE" style="stroke:#000000;stroke-width:1.5;"/><rect fill="none" height="79.0547" style="stroke:#000000;stroke-width:1.5;" width="614" x="263.5" y="573.4609"/><text fill="#000000" font-family="sans-serif" font-size="13" font-weight="bold" lengthAdjust="spacing" textLength="68" x="278.5" y="587.9561">Co-criação</text><line style="stroke:#181818;stroke-width:1.0;" x1="846.5" x2="836.5" y1="614.1641" y2="610.1641"/><line style="stroke:#181818;stroke-width:1.0;" x1="846.5" x2="836.5" y1="614.1641" y2="618.1641"/><line style="stroke:#181818;stroke-width:1.0;" x1="590.5" x2="847.5" y1="614.1641" y2="614.1641"/><text fill="#000000" font-family="sans-serif" font-size="13" font-weight="bold" lengthAdjust="spacing" textLength="14" x="597.5" y="609.3076">12</text><text fill="#000000" font-family="sans-serif" font-size="13" lengthAdjust="spacing" textLength="159" x="615.5" y="609.3076">Verifica limitações técnicas</text><line style="stroke:#181818;stroke-width:1.0;" x1="315.5" x2="325.5" y1="644.5156" y2="640.5156"/><line style="stroke:#181818;stroke-width:1.0;" x1="315.5" x2="325.5" y1="644.5156" y2="648.5156"/><line style="stroke:#181818;stroke-width:1.0;" x1="314.5" x2="589.5" y1="644.5156" y2="644.5156"/><text fill="#000000" font-family="sans-serif" font-size="13" font-weight="bold" lengthAdjust="spacing" textLength="14" x="331.5" y="639.6592">13</text><text fill="#000000" font-family="sans-serif" font-size="13" lengthAdjust="spacing" textLength="123" x="349.5" y="639.6592">Co-cria com o cliente</text><path d="M263.5,666.5156 L372.5,666.5156 L372.5,674.8672 L362.5,684.8672 L263.5,684.8672 L263.5,666.5156 " fill="#EEEEEE" style="stroke:#000000;stroke-width:1.5;"/><rect fill="none" height="200.4609" style="stroke:#000000;stroke-width:1.5;" width="614" x="263.5" y="666.5156"/><text fill="#000000" font-family="sans-serif" font-size="13" font-weight="bold" lengthAdjust="spacing" textLength="64" x="278.5" y="681.0107">Validação</text><line style="stroke:#181818;stroke-width:1.0;" x1="846.5" x2="836.5" y1="707.2188" y2="703.2188"/><line style="stroke:#181818;stroke-width:1.0;" x1="846.5" x2="836.5" y1="707.2188" y2="711.2188"/><line style="stroke:#181818;stroke-width:1.0;" x1="590.5" x2="847.5" y1="707.2188" y2="707.2188"/><text fill="#000000" font-family="sans-serif" font-size="13" font-weight="bold" lengthAdjust="spacing" textLength="14" x="597.5" y="702.3623">14</text><text fill="#000000" font-family="sans-serif" font-size="13" lengthAdjust="spacing" textLength="96" x="615.5" y="702.3623">Validar soluções</text><line style="stroke:#181818;stroke-width:1.0;" x1="315.5" x2="325.5" y1="737.5703" y2="733.5703"/><line style="stroke:#181818;stroke-width:1.0;" x1="315.5" x2="325.5" y1="737.5703" y2="741.5703"/><line style="stroke:#181818;stroke-width:1.0;" x1="314.5" x2="589.5" y1="737.5703" y2="737.5703"/><text fill="#000000" font-family="sans-serif" font-size="13" font-weight="bold" lengthAdjust="spacing" textLength="14" x="331.5" y="732.7139">15</text><text fill="#000000" font-family="sans-serif" font-size="13" lengthAdjust="spacing" textLength="122" x="349.5" y="732.7139">Valida com o usuario</text><line style="stroke:#181818;stroke-width:1.0;" x1="315.5" x2="325.5" y1="767.9219" y2="763.9219"/><line style="stroke:#181818;stroke-width:1.0;" x1="315.5" x2="325.5" y1="767.9219" y2="771.9219"/><line style="stroke:#181818;stroke-width:1.0;" x1="314.5" x2="847.5" y1="767.9219" y2="767.9219"/><text fill="#000000" font-family="sans-serif" font-size="13" font-weight="bold" lengthAdjust="spacing" textLength="14" x="331.5" y="763.0654">16</text><text fill="#000000" font-family="sans-serif" font-size="13" lengthAdjust="spacing" textLength="249" x="349.5" y="763.0654">Constroi versao integrando banco de dados</text><line style="stroke:#181818;stroke-width:1.0;" x1="315.5" x2="325.5" y1="798.2734" y2="794.2734"/><line style="stroke:#181818;stroke-width:1.0;" x1="315.5" x2="325.5" y1="798.2734" y2="802.2734"/><line style="stroke:#181818;stroke-width:1.0;" x1="314.5" x2="589.5" y1="798.2734" y2="798.2734"/><text fill="#000000" font-family="sans-serif" font-size="13" font-weight="bold" lengthAdjust="spacing" textLength="14" x="331.5" y="793.417">17</text><text fill="#000000" font-family="sans-serif" font-size="13" lengthAdjust="spacing" textLength="118" x="349.5" y="793.417">Testa com o usuario</text><line style="stroke:#181818;stroke-width:1.0;" x1="588.5" x2="578.5" y1="828.625" y2="824.625"/><line style="stroke:#181818;stroke-width:1.0;" x1="588.5" x2="578.5" y1="828.625" y2="832.625"/><line style="stroke:#181818;stroke-width:1.0;" x1="314.5" x2="589.5" y1="828.625" y2="828.625"/><text fill="#000000" font-family="sans-serif" font-size="13" font-weight="bold" lengthAdjust="spacing" textLength="14" x="321.5" y="823.7686">18</text><text fill="#000000" font-family="sans-serif" font-size="13" lengthAdjust="spacing" textLength="57" x="339.5" y="823.7686">Feedback</text><line style="stroke:#181818;stroke-width:1.0;" x1="846.5" x2="836.5" y1="858.9766" y2="854.9766"/><line style="stroke:#181818;stroke-width:1.0;" x1="846.5" x2="836.5" y1="858.9766" y2="862.9766"/><line style="stroke:#181818;stroke-width:1.0;" x1="590.5" x2="847.5" y1="858.9766" y2="858.9766"/><text fill="#000000" font-family="sans-serif" font-size="13" font-weight="bold" lengthAdjust="spacing" textLength="14" x="597.5" y="854.1201">19</text><text fill="#000000" font-family="sans-serif" font-size="13" lengthAdjust="spacing" textLength="59" x="615.5" y="854.1201">Correçoes</text><path d="M10,880.9766 L104,880.9766 L104,889.3281 L94,899.3281 L10,899.3281 L10,880.9766 " fill="#EEEEEE" style="stroke:#000000;stroke-width:1.5;"/><rect fill="none" height="109.4063" style="stroke:#000000;stroke-width:1.5;" width="867.5" x="10" y="880.9766"/><text fill="#000000" font-family="sans-serif" font-size="13" font-weight="bold" lengthAdjust="spacing" textLength="49" x="25" y="895.4717">Entrega</text><line style="stroke:#181818;stroke-width:1.0;" x1="315.5" x2="325.5" y1="921.6797" y2="917.6797"/><line style="stroke:#181818;stroke-width:1.0;" x1="315.5" x2="325.5" y1="921.6797" y2="925.6797"/><line style="stroke:#181818;stroke-width:1.0;" x1="314.5" x2="847.5" y1="921.6797" y2="921.6797"/><text fill="#000000" font-family="sans-serif" font-size="13" font-weight="bold" lengthAdjust="spacing" textLength="14" x="331.5" y="916.8232">20</text><text fill="#000000" font-family="sans-serif" font-size="13" lengthAdjust="spacing" textLength="77" x="349.5" y="916.8232">Entrega Final</text><line style="stroke:#181818;stroke-width:1.0;" x1="315.5" x2="325.5" y1="952.0313" y2="948.0313"/><line style="stroke:#181818;stroke-width:1.0;" x1="315.5" x2="325.5" y1="952.0313" y2="956.0313"/><line style="stroke:#181818;stroke-width:1.0;" x1="314.5" x2="589.5" y1="952.0313" y2="952.0313"/><text fill="#000000" font-family="sans-serif" font-size="13" font-weight="bold" lengthAdjust="spacing" textLength="14" x="331.5" y="947.1748">21</text><text fill="#000000" font-family="sans-serif" font-size="13" lengthAdjust="spacing" textLength="152" x="349.5" y="947.1748">Entrega da documentação</text><line style="stroke:#181818;stroke-width:1.0;" x1="56.5" x2="66.5" y1="982.3828" y2="978.3828"/><line style="stroke:#181818;stroke-width:1.0;" x1="56.5" x2="66.5" y1="982.3828" y2="986.3828"/><line style="stroke:#181818;stroke-width:1.0;" x1="55.5" x2="589.5" y1="982.3828" y2="982.3828"/><text fill="#000000" font-family="sans-serif" font-size="13" font-weight="bold" lengthAdjust="spacing" textLength="14" x="72.5" y="977.5264">22</text><text fill="#000000" font-family="sans-serif" font-size="13" lengthAdjust="spacing" textLength="127" x="90.5" y="977.5264">Entrega dos relatórios</text><path d="M10,1004.3828 L187,1004.3828 L187,1012.7344 L177,1022.7344 L10,1022.7344 L10,1004.3828 " fill="#EEEEEE" style="stroke:#000000;stroke-width:1.5;"/><rect fill="none" height="65.0547" style="stroke:#000000;stroke-width:1.5;" width="355.5" x="10" y="1004.3828"/><text fill="#000000" font-family="sans-serif" font-size="13" font-weight="bold" lengthAdjust="spacing" textLength="132" x="25" y="1018.8779">Assina novo contrato</text><line style="stroke:#181818;stroke-width:1.0;" x1="56.5" x2="66.5" y1="1061.4375" y2="1057.4375"/><line style="stroke:#181818;stroke-width:1.0;" x1="56.5" x2="66.5" y1="1061.4375" y2="1065.4375"/><line style="stroke:#181818;stroke-width:1.0;" x1="55.5" x2="313.5" y1="1061.4375" y2="1061.4375"/><text fill="#000000" font-family="sans-serif" font-size="13" font-weight="bold" lengthAdjust="spacing" textLength="14" x="72.5" y="1048.4053">23</text><text fill="#000000" font-family="sans-serif" font-size="13" lengthAdjust="spacing" textLength="141" x="90.5" y="1040.2295">Contrata a segunda fase</text><text fill="#000000" font-family="sans-serif" font-size="13" lengthAdjust="spacing" textLength="154" x="90.5" y="1056.5811">dobrando os investimentos</text><rect fill="none" height="12.5781" id="_title" style="stroke:none;stroke-width:1.0;" width="38" x="848.5" y="5"/><text fill="#888888" font-family="sans-serif" font-size="10" lengthAdjust="spacing" textLength="38" x="848.5" y="15.3809">Resumo</text><!--MD5=[e0b20aa089532ead0f2ab64e4e366e6b]
@startuml
header Resumo
participant Venturus as ven
actor Stakeholder as eng
actor Saimon as sai
actor Devs as dev
Autonumber
group Orçamento
eng->>ven: Chega com a proposta de software
ven->>eng: Devolve orçamento com preço e tempo
eng->>ven: Fecha contrato
end
group discovery
eng->>sai: Fornece documentação
sai->>dev: Estuda a documentação com a equipe
sai->>eng: Mapeaia dores e desafios
eng->>sai: Fornece mais dados da jornada
sai->>dev: Analisa com a equipe
sai->>eng: Demonstra as causas raiz dos problemas
end
group Reflete nas causas raiz
eng->>eng: Percebe que sua solução não\nresolve o problema real
eng->>ven: Negocia segunda fase
end
group Co-criação
sai->>dev: Verifica limitações técnicas
sai->>eng: Co-cria com o cliente
end
Group Validação
sai->>dev: Validar soluções
sai->>eng: Valida com o usuario
dev->>eng: Constroi versao integrando banco de dados
sai->>eng: Testa com o usuario
eng->>sai: Feedback
sai->>dev: Correçoes
end
group Entrega
dev->>eng: Entrega Final
sai->>eng: Entrega da documentação
sai->>ven: Entrega dos relatórios
end
group Assina novo contrato
eng->>ven: Contrata a segunda fase\ndobrando os investimentos
end
@enduml

PlantUML version 1.2022.7(Mon Aug 22 14:01:30 BRT 2022)
(GPL source distribution)
Java Runtime: Java(TM) SE Runtime Environment
JVM: Java HotSpot(TM) 64-Bit Server VM
Default Encoding: Cp1252
Language: pt
Country: BR
--></g></svg>